# xmcd
#
# Track frame offsets:
#	150
#	11682
#	29941
#	50681
#	69906
#	85845
#	102108
#	119840
#	148695
#	168230
#	191416
#
# Disc length: 2764 seconds
#
# Revision: 1
# Processed by: cddbd v1.5.2PL0 Copyright (c) Steve Scherf et al.
# Submitted via: EasyCDDAExtractor 10.0.6.1
#
DISCID=9a0aca0b
DTITLE=Brent and Randy Mason - Smokin' Section
DYEAR=2007
DGENRE=Guitar
TTITLE0=Smokin' Section
TTITLE1=Limehouse Blues
TTITLE2=Real Bad Blues
TTITLE3=Hip Pocket
TTITLE4=Nothin' To It
TTITLE5=December
TTITLE6=Samba Beach
TTITLE7=Since I Fell For You
TTITLE8=Last Minute Waltz
TTITLE9=I'm Bringin' Home Good News
TTITLE10=Strat Strut
EXTD=YEAR: 2007
EXTT0=
EXTT1=
EXTT2=
EXTT3=
EXTT4=
EXTT5=
EXTT6=
EXTT7=
EXTT8=
EXTT9=
EXTT10=
PLAYORDER=
